<svg id="Layer_1" data-name="Layer 1" xmlns="http://www.w3.org/2000/svg" xmlns:xlink="http://www.w3.org/1999/xlink" viewBox="0 0 208.13 401.88"><defs><style>.cls-1{fill:none;}.cls-2{fill:#fff;}.cls-3{clip-path:url(#clip-path);}.cls-4{fill:#8bd2dc;}</style><clipPath id="clip-path" transform="translate(25.98 -11.07)"><path class="cls-1" d="M112.62.62A64.74,64.74,0,0,1,47.88,65.36,64.75,64.75,0,0,1-16.87.62S8.58,6.38,44.33,6.38,112.62-35.14,112.62.62Z"/></clipPath></defs><path class="cls-2" d="M-2,412.1l2.37-.84-2.83-3.68L.22,406.1l.39.79-2,1L2.11,410l.81-3.12.82.13v4.82L-1.54,413Z" transform="translate(25.98 -11.07)"/><g class="cls-3"><path class="cls-4" d="M29,17.88c-4,1.82-4.3,7.38-1.16,10.45a11.65,11.65,0,0,0,16.31.06,2.45,2.45,0,0,1,2.95-.7c1.91.68,3.9,1.14,5.88,1.7-6.07,12.19-24.82,13.51-32.4,2.4a12.6,12.6,0,0,1,.83-14.72c3.34-4.32,9.34-5.91,13-4.23L28.92,18Z" transform="translate(25.98 -11.07)"/><path class="cls-4" d="M22.93,52.48,16.7,47.9l6.46-12.21c1.89,1.21,3,2.75,7,3.54Z" transform="translate(25.98 -11.07)"/><path class="cls-4" d="M70.79,21.92c4.77-.49.48,4.73.76,7.44-12,1.08-23.37-.67-34.39-6.66a42.81,42.81,0,0,1,5-3.95,4.81,4.81,0,0,1,3.61-.41C53.63,21.37,66,22.41,70.79,21.92Z" transform="translate(25.98 -11.07)"/><path class="cls-4" d="M29.08,19.19c1.49-1.38,3.69-4,5.58-5.46,7-5.33,16.56-2.36,19.44,6.45a46.71,46.71,0,0,1-6.7-2.12c-3.1-1.53-5.41-.49-7.74,1.49-3,2.56-6.1,5.08-9.25,7.49-1.85,1.42-2.23,1.23-3.29-.93-1.21-2.46-.67-3.87,1.2-5.88a5.77,5.77,0,0,0,.56-.81Z" transform="translate(25.98 -11.07)"/><polygon class="cls-4" points="96.76 10.85 195.28 0.71 196.43 8.81 97.53 18.29 96.76 10.85"/><polygon class="cls-4" points="42.67 36.83 48.91 41.41 6.07 126.58 0 122.12 42.67 36.83"/></g><path class="cls-4" d="M35,59.75a.49.49,0,0,1-.49-.49l.28-22.67,7.82-.45.28,17.5H58.2a.48.48,0,0,1,.49.48v5.14a.49.49,0,0,1-.49.49Z" transform="translate(25.98 -11.07)"/><path class="cls-4" d="M60.69,59.75a.49.49,0,0,1-.49-.49l.17-13.41L60.2,32.39a.48.48,0,0,1,.49-.49H68a.48.48,0,0,1,.49.49l-.16,13.46.16,13.41a.49.49,0,0,1-.49.49Z" transform="translate(25.98 -11.07)"/><path class="cls-4" d="M71.67,59.75a.49.49,0,0,1-.49-.49l.16-12.87,0-14a.48.48,0,0,1,.49-.49h6.86a.48.48,0,0,1,.49.49l-.16,3a11.24,11.24,0,0,1,9-4.16c5.9,0,9.69,4,9.69,10.81v5.85l.16,11.35a.49.49,0,0,1-.49.49H90.05a.48.48,0,0,1-.48-.49l.11-11.35V42.17c0-3-1.79-5-4.22-5-2.92,0-6.06,2.7-6.06,8.65v2.06l.11,11.35a.49.49,0,0,1-.49.49Z" transform="translate(25.98 -11.07)"/><path class="cls-4" d="M114.12,53.91l-3.46-6.17L108,51.1l0,8.16a.48.48,0,0,1-.48.49h-7.09a.48.48,0,0,1-.48-.49l.21-18.44L100.06,30c0-1.42.19-4.36-1.18-4-5.88,1.51,1.4-4.08,1.61-4.08l7.7.35s2.65-4.95,0,2.14c-2.08,5.51-.26,16.28-.26,16.28v1.68L116,32.28a1.23,1.23,0,0,1,.81-.38h8c.22,0,.27.21.16.38l-8.6,9.62,10.06,17.42a.29.29,0,0,1-.27.43h-8.44a.78.78,0,0,1-.7-.43Z" transform="translate(25.98 -11.07)"/><path class="cls-4" d="M151.27,50.34a.41.41,0,0,1,.43.49c-.7,5.08-5.57,9.62-13.35,9.62-9.3,0-14.33-6.11-14.33-14.55,0-8.86,5.3-14.7,14.17-14.7,9.13,0,14.22,6.05,14.38,15.79a.48.48,0,0,1-.49.48h-19.9c.33,5.25,2.38,7.57,6.28,7.57a5.07,5.07,0,0,0,5.4-4.21.65.65,0,0,1,.6-.49Zm-13-13.79c-3.25,0-5.19,2-5.84,5.79h11.41C143.48,39.36,141.81,36.55,138.24,36.55Z" transform="translate(25.98 -11.07)"/><path class="cls-4" d="M174.42,59.75a.49.49,0,0,1-.49-.49l.16-2.76a10.19,10.19,0,0,1-8.22,3.79c-7.89,0-12.06-6.27-12.06-14.39S158.46,31.36,166,31.36a9.93,9.93,0,0,1,8,3.46L174,22.38a.49.49,0,0,1,.49-.49h7.19a.49.49,0,0,1,.49.49L182,40.82l.11,18.44a.49.49,0,0,1-.49.49Zm-6.28-4.82c4,0,6.06-3,6.11-8.86s-2.05-9.3-5.94-9.36c-4.11-.11-6.22,3-6.22,8.82C162.09,51.8,164.25,55,168.14,54.93Z" transform="translate(25.98 -11.07)"/></svg>