<?xml version="1.0" encoding="utf-8"?>
<!-- Generator: Adobe Illustrator 26.0.1, SVG Export Plug-In . SVG Version: 6.00 Build 0)  -->
<svg version="1.1" id="Layer_1" xmlns="http://www.w3.org/2000/svg" xmlns:xlink="http://www.w3.org/1999/xlink" x="0px" y="0px"
	 viewBox="0 0 169.1 49.4" style="enable-background:new 0 0 169.1 49.4;" xml:space="preserve">
<style type="text/css">
	.st0{fill:none;}
	.st1{fill:#FFFFFF;}
</style>
<g>
	<path class="st0" d="M9.9,41.4c-1-0.7-1.9-1.4-2.8-2L9.9,41.4z"/>
	<path class="st1" d="M39.9,18.3c-2-0.6-4-1-5.9-1.7c-1.2-0.4-2-0.2-2.9,0.7c-4.6,4.5-11.8,4.4-16.3-0.1c-3.1-3.1-2.8-8.6,1.2-10.4
		l-0.1,0.1c1.8-1.7,3.7-3.4,5.5-5.1c-3.7-1.7-9.7-0.1-13,4.2c-3.4,4.4-3.8,10.4-0.8,14.7C15.1,31.8,33.8,30.5,39.9,18.3z"/>
	<path class="st1" d="M9.9,41.4c2.5-4.7,4.8-8.9,7.2-13.3c-4-0.8-5.1-2.3-7-3.5c-2.1,4-4.3,8.1-6.5,12.2l3.5,2.5
		C8,40,8.9,40.7,9.9,41.4z"/>
	<path class="st1" d="M32.7,7.3c-1-0.4-2.6-0.2-3.6,0.4c-1.7,1-3.2,2.5-5,3.9c11,6,22.4,7.7,34.4,6.7l-0.8-7.4
		C53,11.3,40.6,10.3,32.7,7.3z"/>
	<path class="st1" d="M21.6,2.7c-1.9,1.4-4.1,4.1-5.6,5.5l-0.2,0.2c-0.1,0.1-0.3,0.5-0.6,0.8c-1.9,2-2.4,3.4-1.2,5.9
		c1.1,2.2,1.4,2.4,3.3,0.9c3.1-2.4,6.2-4.9,9.2-7.5c2.3-2,4.6-3,7.7-1.5c2,1,4.3,1.4,6.7,2.1C38.2,0.3,28.6-2.7,21.6,2.7z"/>
	<path class="st1" d="M97.2,6.8l-39.5,4.1l0.8,7.4l35.9-3.4C95.5,12.2,96.5,9.5,97.2,6.8z"/>
	<path class="st1" d="M9.9,41.4l-2.8-2l-3.5-2.5L0,44.1c2.1,1.4,4.3,2.6,6.6,3.7L9.9,41.4z"/>
</g>
<path class="st1" d="M21.9,48.7c-0.3,0-0.5-0.2-0.5-0.5l0.3-22.7l7.8-0.5l0.3,17.5h15.4c0.3,0,0.5,0.2,0.5,0.5v5.1
	c0,0.3-0.2,0.5-0.5,0.5H21.9z"/>
<path class="st1" d="M47.6,48.7c-0.3,0-0.5-0.2-0.5-0.5l0.2-13.4l-0.2-13.5c0-0.3,0.2-0.5,0.5-0.5h7.3c0.3,0,0.5,0.2,0.5,0.5
	l-0.2,13.5l0.2,13.4c0,0.3-0.2,0.5-0.5,0.5H47.6z"/>
<path class="st1" d="M58.6,48.7c-0.3,0-0.5-0.2-0.5-0.5l0.2-12.9l-0.1-14c0-0.3,0.2-0.5,0.5-0.5h6.9c0.3,0,0.5,0.2,0.5,0.5l-0.2,3
	c1.9-2.4,5.1-4.2,9-4.2c5.9,0,9.7,4,9.7,10.8v5.8l0.2,11.4c0,0.3-0.2,0.5-0.5,0.5H77c-0.3,0-0.5-0.2-0.5-0.5l0.1-11.4v-5.7
	c0-3-1.8-5-4.2-5c-2.9,0-6.1,2.7-6.1,8.7v2.1l0.1,11.4c0,0.3-0.2,0.5-0.5,0.5H58.6z"/>
<path class="st1" d="M101.1,42.8l-3.5-6.2L95,40l0.1,8.2c0,0.3-0.2,0.5-0.5,0.5h-7.1c-0.3,0-0.5-0.2-0.5-0.5l0.2-18.4L87,18.9
	c0-1.4,0.2-4.4-1.2-4c-5.9,1.5,1.4-4.1,1.6-4.1l7.7,0.3c0,0,2.6-5,0,2.1c-2.1,5.5-0.3,16.3-0.3,16.3v1.7l8.1-10.1
	c0.2-0.2,0.5-0.4,0.8-0.4h7.9c0.2,0,0.3,0.2,0.2,0.4l-8.6,9.6l10.1,17.4c0.1,0.2-0.1,0.4-0.3,0.4h-8.4c-0.3,0-0.6-0.2-0.7-0.4
	L101.1,42.8z"/>
<path class="st1" d="M138.2,39.3c0.3,0,0.5,0.2,0.4,0.5c-0.7,5.1-5.6,9.6-13.4,9.6c-9.3,0-14.3-6.1-14.3-14.5
	c0-8.9,5.3-14.7,14.2-14.7c9.1,0,14.2,6.1,14.4,15.8c0,0.3-0.2,0.5-0.5,0.5h-19.9c0.3,5.2,2.4,7.6,6.3,7.6c2.7,0,4.6-1.2,5.4-4.2
	c0.1-0.3,0.3-0.5,0.6-0.5H138.2z M125.2,25.5c-3.2,0-5.2,1.9-5.8,5.8h11.4C130.4,28.3,128.8,25.5,125.2,25.5z"/>
<path class="st1" d="M161.4,48.7c-0.3,0-0.5-0.2-0.5-0.5l0.2-2.8c-1.9,2.4-4.7,3.8-8.2,3.8c-7.9,0-12.1-6.3-12.1-14.4
	c0-8.1,4.7-14.5,12.2-14.5c3.4,0,6.1,1.2,8,3.5l-0.1-12.4c0-0.3,0.2-0.5,0.5-0.5h7.2c0.3,0,0.5,0.2,0.5,0.5L169,29.7l0.1,18.4
	c0,0.3-0.2,0.5-0.5,0.5H161.4z M155.1,43.9c3.9,0,6.1-3,6.1-8.9c0.1-6-2.1-9.3-5.9-9.4c-4.1-0.1-6.2,3-6.2,8.8
	C149,40.7,151.2,43.9,155.1,43.9z"/>
</svg>
